<svg xmlns="http://www.w3.org/2000/svg" viewBox="88 60 124 138" width="124" height="138">
<path transform="matrix(1,0,0,-1,160.3563,191.5411)" d="M0 0C5.492 5.496 15.096 10.58 22.444 11.718 27.672 12.529 35.057 14.482 38.817 22.044 39.12 22.648 39.218 23.053 39.036 23.194 38.844 23.344 38.483 23.112 38.154 22.668 35.428 18.996 32.219 16.898 27.421 16.785 25.742 16.746 24.521 16.812 24.33 17.406 24.086 18.166 24.851 18.965 25.867 20.396 29.118 24.974 30.895 29.192 31.84 33.926 32.952 39.496 33.426 42.704 36.758 48.99 40.204 55.49 41.574 60.458 40.359 70.92 40.321 71.248 40.193 71.572 39.939 71.575 39.651 71.575 39.498 71.128 39.487 70.886 39.114 62.354 38.045 58.469 35.222 54.427 34.193 52.955 32.98 51.794 32.293 52.011 31.585 52.235 31.376 54.204 31.049 55.365 29.564 60.626 27.728 64.261 25.667 68.024 23.039 72.821 23.192 76.549 22.728 85.224 22.484 89.79 21.666 96.687 17.376 103.852 17.175 104.183 16.878 104.444 16.594 104.307 16.406 104.216 16.431 103.898 16.527 103.588 18.619 96.837 19.364 90.263 18.926 84.749 18.741 82.429 18.682 81.368 17.908 81.271 17.247 81.188 15.726 82.378 14.869 83.365 4.644 95.146-2.395 108.936-4.77 125.496-4.841 125.998-4.955 126.134-5.116 126.134-5.329 126.134-5.486 125.887-5.495 125.296-5.754 108.718-.448 93.452 10.276 79.923 20.138 67.484 24.848 56.049 24.674 44.962 24.427 29.136 16.339 18.54-1.549 10.608-3.777 9.619-3.91 3.837-3.91 1.057-3.91-.919-3.24-1.425-2.605-1.425-1.804-1.425-1.055-1.055 0 0" fill="#312f57"/>
<path transform="matrix(1,0,0,-1,139.8978,191.5411)" d="M0 0C-5.492 5.496-15.096 10.58-22.445 11.718-27.672 12.529-35.057 14.482-38.817 22.044-39.121 22.648-39.218 23.053-39.036 23.194-38.844 23.344-38.483 23.112-38.155 22.668-35.428 18.996-32.219 16.898-27.421 16.785-25.742 16.746-24.521 16.812-24.33 17.406-24.086 18.166-24.851 18.965-25.868 20.396-29.119 24.974-30.894 29.192-31.84 33.926-32.952 39.496-33.426 42.704-36.758 48.99-40.204 55.49-41.574 60.458-40.359 70.92-40.321 71.248-40.193 71.572-39.939 71.575-39.651 71.575-39.498 71.128-39.488 70.886-39.114 62.354-38.045 58.469-35.222 54.427-34.193 52.955-32.98 51.794-32.293 52.011-31.584 52.235-31.376 54.204-31.049 55.365-29.565 60.626-27.728 64.261-25.666 68.024-23.039 72.821-23.192 76.549-22.728 85.224-22.484 89.79-21.665 96.687-17.376 103.852-17.175 104.183-16.878 104.444-16.594 104.307-16.406 104.216-16.431 103.898-16.528 103.588-18.62 96.837-19.364 90.263-18.926 84.749-18.741 82.429-18.682 81.368-17.909 81.271-17.248 81.188-15.726 82.378-14.869 83.365-4.644 95.146 2.394 108.936 4.77 125.496 4.841 125.998 4.955 126.134 5.116 126.134 5.329 126.134 5.486 125.887 5.495 125.296 5.754 108.718 .448 93.452-10.277 79.923-20.138 67.484-24.848 56.049-24.674 44.962-24.427 29.136-16.339 18.54 1.548 10.608 3.777 9.619 3.91 3.837 3.91 1.057 3.91-.919 3.24-1.425 2.605-1.425 1.803-1.425 1.055-1.055 0 0" fill="#312f57"/>
</svg>
